<svg xmlns="http://www.w3.org/2000/svg" width="512" height="512" viewBox="0 0 24 24"><path d="M2.751 15H0v-1a7.634 7.634 0 0 1 4.065-6.831 10.975 10.975 0 0 1 3.9-1.09q-.889 1.1-1.783 2.338A40.582 40.582 0 0 0 2.751 15zm12.832 2.813A40.582 40.582 0 0 1 9 21.249V24h1a7.634 7.634 0 0 0 6.831-4.065 10.975 10.975 0 0 0 1.09-3.9q-1.095.885-2.338 1.778zM24 2.991c-.133 4.353-3.267 8.67-9.582 13.2A34.995 34.995 0 0 1 9 19.063V18.5A3.517 3.517 0 0 0 5.5 15h-.563a34.912 34.912 0 0 1 2.876-5.417C12.332 3.278 16.642.144 20.988 0 23.154 0 24 .885 24 2.991zM18 8.5a2.5 2.5 0 0 0-5 0 2.5 2.5 0 0 0 5 0zM1.374 23.785c1.126-.2 3.841-.758 4.748-1.664a3 3 0 0 0-4.243-4.243C.973 18.785.414 21.5.215 22.626l-.247 1.406z"/></svg>