<svg xmlns="http://www.w3.org/2000/svg"><symbol id="blank" viewBox="0 0 24 24"><path d="M12.01 7.77a2.604 2.604 0 0 1 3.68 0l1.04 1.04c.23.23.62.23.85 0l5.95-5.95A5.006 5.006 0 0 0 19.01 0H10C7.24 0 5 2.24 5 5v6c0 1.07.34 2.06.91 2.87l6.1-6.1zM9.5 3c.83 0 1.5.67 1.5 1.5S10.33 6 9.5 6 8 5.33 8 4.5 8.67 3 9.5 3zm2.83 20.82l-8.67-2.41a5.005 5.005 0 0 1-3.48-6.16l1.61-5.78c.23-.82.65-1.54 1.21-2.12v3.66c0 3.87 3.13 7 7 7h9.14l-.65 2.34a5.005 5.005 0 0 1-6.16 3.48zM24 5.21V11c0 2.76-2.24 5-5 5h-9c-.97 0-1.87-.28-2.64-.75l6.06-6.06a.61.61 0 0 1 .85 0l1.04 1.04c.98.98 2.69.98 3.67 0L24 5.21z"/></symbol><symbol id="sales" viewBox="0 0 24 24"><path d="M22.713 4.077A2.993 2.993 0 0 0 20.41 3H4.242L4.2 2.649A3 3 0 0 0 1.222 0H1a1 1 0 0 0 0 2h.222a1 1 0 0 1 .993.883l1.376 11.7A5 5 0 0 0 8.557 19H19a1 1 0 0 0 0-2H8.557a3 3 0 0 1-2.82-2h11.92a5 5 0 0 0 4.921-4.113l.785-4.354a2.994 2.994 0 0 0-.65-2.456z"/><circle cx="7" cy="22" r="2"/><circle cx="17" cy="22" r="2"/></symbol><symbol id="stock" viewBox="0 0 24 24"><path d="M11 13H3a3 3 0 0 0-3 3v5a3 3 0 0 0 3 3h8V13zm-7.5 4a1 1 0 0 1 1-1h2a1 1 0 0 1 0 2h-2a1 1 0 0 1-1-1zM21 13h-8v11h8a3 3 0 0 0 3-3v-5a3 3 0 0 0-3-3zm-1.5 5h-2a1 1 0 0 1 0-2h2a1 1 0 0 1 0 2zM15 0H9a3 3 0 0 0-3 3v8h12V3a3 3 0 0 0-3-3zm-2 5h-2a1 1 0 0 1 0-2h2a1 1 0 0 1 0 2z"/></symbol><symbol id="calculator" viewBox="0 0 24 24"><path d="M17 7a1 1 0 0 1-1 1H8a1 1 0 0 1 0-2h8a1 1 0 0 1 1 1zm6-2v14a5.006 5.006 0 0 1-5 5H6a5.006 5.006 0 0 1-5-5V5a5.006 5.006 0 0 1 5-5h12a5.006 5.006 0 0 1 5 5zM7 18a1 1 0 1 0-1 1 1 1 0 0 0 1-1zm0-4a1 1 0 1 0-1 1 1 1 0 0 0 1-1zm4 4a1 1 0 1 0-1 1 1 1 0 0 0 1-1zm0-4a1 1 0 1 0-1 1 1 1 0 0 0 1-1zm8 4a1 1 0 0 0-1-1h-4a1 1 0 0 0 0 2h4a1 1 0 0 0 1-1zm-5-3a1 1 0 1 0-1-1 1 1 0 0 0 1 1zm5-1a1 1 0 1 0-1 1 1 1 0 0 0 1-1zm0-7a3 3 0 0 0-3-3H8a3 3 0 0 0 0 6h8a3 3 0 0 0 3-3z"/></symbol><symbol id="trend" viewBox="0 0 24 24"><path d="M12 24c-1.65 0-3-1.35-3-3V3c0-1.65 1.35-3 3-3s3 1.35 3 3v18c0 1.65-1.35 3-3 3zm9 0c-1.65 0-3-1.35-3-3V9c0-1.65 1.35-3 3-3s3 1.35 3 3v12c0 1.65-1.35 3-3 3zM3 24c-1.65 0-3-1.35-3-3v-6c0-1.65 1.35-3 3-3s3 1.35 3 3v6c0 1.65-1.35 3-3 3z"/></symbol><symbol id="products" viewBox="0 0 512 512"><path d="M85.333 0h64c47.128 0 85.333 38.205 85.333 85.333v64c0 47.128-38.205 85.333-85.333 85.333h-64C38.205 234.667 0 196.462 0 149.333v-64C0 38.205 38.205 0 85.333 0zm277.334 0h64C473.795 0 512 38.205 512 85.333v64c0 47.128-38.205 85.333-85.333 85.333h-64c-47.128 0-85.333-38.205-85.333-85.333v-64C277.333 38.205 315.538 0 362.667 0zM85.333 277.333h64c47.128 0 85.333 38.205 85.333 85.333v64c0 47.128-38.205 85.333-85.333 85.333h-64C38.205 512 0 473.795 0 426.667v-64c0-47.129 38.205-85.334 85.333-85.334zm277.334 0h64c47.128 0 85.333 38.205 85.333 85.333v64C512 473.795 473.795 512 426.667 512h-64c-47.128 0-85.333-38.205-85.333-85.333v-64c-.001-47.129 38.204-85.334 85.333-85.334z"/></symbol><symbol id="rocket" viewBox="0 0 24 24"><path d="M2.751 15H0v-1a7.634 7.634 0 0 1 4.065-6.831 10.975 10.975 0 0 1 3.9-1.09q-.889 1.1-1.783 2.338A40.582 40.582 0 0 0 2.751 15zm12.832 2.813A40.582 40.582 0 0 1 9 21.249V24h1a7.634 7.634 0 0 0 6.831-4.065 10.975 10.975 0 0 0 1.09-3.9q-1.095.885-2.338 1.778zM24 2.991c-.133 4.353-3.267 8.67-9.582 13.2A34.995 34.995 0 0 1 9 19.063V18.5A3.517 3.517 0 0 0 5.5 15h-.563a34.912 34.912 0 0 1 2.876-5.417C12.332 3.278 16.642.144 20.988 0 23.154 0 24 .885 24 2.991zM18 8.5a2.5 2.5 0 0 0-5 0 2.5 2.5 0 0 0 5 0zM1.374 23.785c1.126-.2 3.841-.758 4.748-1.664a3 3 0 0 0-4.243-4.243C.973 18.785.414 21.5.215 22.626l-.247 1.406z"/></symbol><symbol id="home" viewBox="0 0 512 512"><path d="M256 319.841c-35.346 0-64 28.654-64 64v128h128v-128c0-35.346-28.654-64-64-64z"/><path d="M362.667 383.841v128H448c35.346 0 64-28.654 64-64V253.26a42.665 42.665 0 0 0-12.011-29.696l-181.29-195.99c-31.988-34.61-85.976-36.735-120.586-4.747a85.355 85.355 0 0 0-4.747 4.747L12.395 223.5A42.669 42.669 0 0 0 0 253.58v194.261c0 35.346 28.654 64 64 64h85.333v-128c.399-58.172 47.366-105.676 104.073-107.044 58.604-1.414 108.814 46.899 109.261 107.044z"/><path d="M256 319.841c-35.346 0-64 28.654-64 64v128h128v-128c0-35.346-28.654-64-64-64z"/></symbol><symbol id="reset" viewBox="0 0 40 40"><g fill-rule="evenodd" clip-rule="evenodd"><path d="M20 9.817c-1.504 0-2.866.23-4.09.597a1.25 1.25 0 1 1-.72-2.395A16.66 16.66 0 0 1 20 7.317c8.047 0 14.583 6.466 14.583 14.466 0 8-6.536 14.467-14.583 14.467S5.417 29.784 5.417 21.783c0-2.975.913-5.75 2.463-8.049a1.25 1.25 0 1 1 2.073 1.398 11.864 11.864 0 0 0-2.036 6.651c0 6.6 5.396 11.967 12.083 11.967 6.686 0 12.083-5.367 12.083-11.967 0-6.6-5.396-11.966-12.083-11.966z"/><path d="M18.597 3.951a1.25 1.25 0 0 1 .368 1.73l-2.117 3.264 3.295 2.12a1.25 1.25 0 0 1-1.353 2.103l-4.35-2.8a1.25 1.25 0 0 1-.372-1.732l2.8-4.316a1.25 1.25 0 0 1 1.729-.369z"/></g></symbol><symbol id="cross" viewBox="0 0 24 24"><path d="M23.707.293a1 1 0 0 0-1.414 0L12 10.586 1.707.293a1 1 0 0 0-1.414 0 1 1 0 0 0 0 1.414L10.586 12 .293 22.293a1 1 0 0 0 0 1.414 1 1 0 0 0 1.414 0L12 13.414l10.293 10.293a1 1 0 0 0 1.414 0 1 1 0 0 0 0-1.414L13.414 12 23.707 1.707a1 1 0 0 0 0-1.414z"/></symbol><symbol id="handle" viewBox="0 0 24 24"><path d="M0 9a1 1 0 0 1 1-1h22a1 1 0 0 1 0 2H1a1 1 0 0 1-1-1zm23 5H1a1 1 0 0 0 0 2h22a1 1 0 0 0 0-2z"/></symbol><symbol id="check" viewBox="0 0 507.51 507.51"><path d="M163.865 436.934a54.228 54.228 0 0 1-38.4-15.915L9.369 304.966c-12.492-12.496-12.492-32.752 0-45.248 12.496-12.492 32.752-12.492 45.248 0l109.248 109.248L452.889 79.942c12.496-12.492 32.752-12.492 45.248 0 12.492 12.496 12.492 32.752 0 45.248L202.265 421.019a54.228 54.228 0 0 1-38.4 15.915z"/></symbol><symbol id="add" viewBox="0 0 24 24"><path d="M17 12a1.5 1.5 0 0 1-1.5 1.5h-2v2a1.5 1.5 0 1 1-3 0v-2h-2a1.5 1.5 0 1 1 0-3h2v-2a1.5 1.5 0 1 1 3 0v2h2A1.5 1.5 0 0 1 17 12zm7-6.5v13c0 3.032-2.467 5.5-5.5 5.5h-13A5.506 5.506 0 0 1 0 18.5v-13C0 2.468 2.467 0 5.5 0h13C21.533 0 24 2.468 24 5.5zm-3 0C21 4.121 19.878 3 18.5 3h-13A2.503 2.503 0 0 0 3 5.5v13C3 19.879 4.122 21 5.5 21h13c1.378 0 2.5-1.121 2.5-2.5v-13z"/></symbol><symbol id="mobile" viewBox="0 0 24 24"><path d="M15.045 0h-6.09A5.006 5.006 0 0 0 4 4.999v14c0 2.757 2.243 5 5 5h6c2.757 0 5-2.243 5-5V5a5.007 5.007 0 0 0-4.955-5zM18 18.999c0 1.654-1.346 3-3 3H9c-1.654 0-3-1.346-3-3V5a3.006 3.006 0 0 1 2.411-2.942l.694 1.389A1 1 0 0 0 10 4h4c.379 0 .725-.214.895-.553l.694-1.389A3.005 3.005 0 0 1 18 5v14zm-5 1h-2a1 1 0 0 1 0-2h2a1 1 0 0 1 0 2z"/></symbol></svg>